<svg xmlns="http://www.w3.org/2000/svg" viewBox="337 351 324 227" role="img" aria-label="Linked Layer">
<defs><linearGradient id="g" gradientUnits="userSpaceOnUse" x1="4900" y1="6150" x2="4900" y2="4160"><stop offset="0" stop-color="#818cf8"/><stop offset="0.55" stop-color="#6366f1"/><stop offset="1" stop-color="#4338ca"/></linearGradient></defs>
<g transform="translate(0,980) scale(0.1,-0.1)" fill="url(#g)"><path d="M4750 5538 c149 -337 275 -616 279 -620 4 -5 108 239 231 542 222 543 225 549 253 550 23 0 31 6 40 30 9 23 17 30 39 30 21 0 29 6 34 25 5 22 12 25 50 25 32 0 44 4 44 15 0 13 48 15 375 15 l375 0 0 -45 0 -45 -45 0 c-33 0 -45 -4 -45 -15 0 -10 -11 -15 -35 -15 -31 0 -35 -3 -35 -25 0 -22 -4 -25 -40 -25 -38 0 -40 -2 -40 -30 0 -29 -1 -30 -50 -30 l-50 0 0 -733 c0 -814 -4 -767 68 -787 20 -5 90 -10 155 -10 l117 0 0 -45 0 -45 -45 0 c-33 0 -45 -4 -45 -15 0 -10 -11 -15 -35 -15 -31 0 -35 -3 -35 -25 0 -22 -4 -25 -40 -25 -38 0 -40 -2 -40 -30 l0 -30 -500 0 -500 0 0 45 0 45 40 0 c38 0 40 2 40 30 0 28 3 30 35 30 31 0 35 3 35 25 0 23 4 25 45 25 33 0 45 4 45 15 0 12 13 15 55 15 l55 0 0 538 c0 320 -4 531 -9 523 -5 -8 -114 -270 -243 -583 l-233 -568 -42 0 c-32 0 -43 -4 -43 -15 0 -10 -10 -15 -30 -15 -23 0 -31 -5 -36 -25 -5 -20 -13 -25 -36 -25 -24 0 -32 -6 -41 -30 -11 -28 -15 -30 -62 -30 l-50 0 -265 597 -265 597 -3 -364 c-3 -425 0 -447 74 -517 48 -46 104 -67 212 -79 l62 -7 0 -43 0 -44 -45 0 c-33 0 -45 -4 -45 -15 0 -10 -11 -15 -35 -15 -31 0 -35 -3 -35 -25 0 -22 -4 -25 -40 -25 -38 0 -40 -2 -40 -30 l0 -30 -410 0 -410 0 0 45 c0 41 2 45 24 45 39 0 56 11 56 35 0 19 6 24 33 27 24 2 33 8 35 24 2 17 12 23 44 27 22 3 44 10 47 15 3 5 23 12 45 15 21 3 40 8 43 10 17 18 23 205 23 780 0 735 3 707 -68 726 -20 6 -92 11 -159 11 l-123 0 0 45 0 45 40 0 c38 0 40 2 40 30 0 28 3 30 35 30 31 0 35 3 35 25 0 23 4 25 45 25 33 0 45 4 45 15 0 13 47 15 364 15 l364 0 272 -612z"/></g>
</svg>